# xmcd
# 
# Track frame offsets:
#     150
#     14150
#     29045
#     50107
#     64900
#     86360
#     106385
#     128147
#     146412
#     164830
#     175065
#     192412
#     210470
#     229512
#     245450
#     260115
#     274925
# 
# Disc length: 3879
# 
# Revision: 4
# Processed by: cddbd v1.5.2PL0 Copyright (c) Steve Scherf et al.
# Submitted via: fre:ac v1.0.27
# 
DISCID=050f2511
DTITLE=玉置浩二 - Best Harvest
DYEAR=2003
DGENRE=J-Pop
TTITLE0=ルーキー
TTITLE1=願い
TTITLE2=HAPPY BIRTHDAY 〜愛が生まれた〜
TTITLE3=GRAND LOVE
TTITLE4=愛だったんだよ
TTITLE5=ワインレッドの心
TTITLE6=悲しみにさよなら
TTITLE7=夏の終りのハーモニー
TTITLE8=虹色だった
TTITLE9=凡人
TTITLE10=aibo
TTITLE11=常夜灯
TTITLE12=淋しんぼう
TTITLE13=このリズムで
TTITLE14=甘んじて受け入れよう
TTITLE15=どうなってもいい
TTITLE16=君だけを
EXTD=
EXTT0=
EXTT1=
EXTT2=
EXTT3=
EXTT4=
EXTT5=
EXTT6=
EXTT7=
EXTT8=
EXTT9=
EXTT10=
EXTT11=
EXTT12=
EXTT13=
EXTT14=
EXTT15=
EXTT16=
PLAYORDER=
